# xmcd CD database file generated by MAGIX-FreeDB- v3.0beta1
#
# Track frame offsets:
#	150
#	26888
#	41040
#	57973
#	76600
#	89920
#	110710
#	126325
#	145905
#	162385
#	184805
#	208688
#	223050
#	248543
#	279998
#	304470
#
# Disc length: 4406
#
# Revision: 2
# Processed by: cddbd v1.5.2PL0 Copyright (c) Steve Scherf et al.
# Submitted via: MAGIX-FreeDB- v3.0beta1
#
DISCID=f4113410
DTITLE=STEELY DAN - CITIZEN STEELY DAN 1972-1980 (4-CD BOX SET)
DYEAR=1993
DGENRE=Classic Rock
TTITLE0=Do It Again
TTITLE1=Dirty Work
TTITLE2=Kings
TTITLE3=Midnite Cruiser
TTITLE4=Only A Fool Would Say That
TTITLE5=Reelin' In The Years
TTITLE6=Fire In The Hole
TTITLE7=Brooklyn (Owes The Charmer Under Me)
TTITLE8=Change Of The Guard
TTITLE9=Turn That Heartbeat Over Again
TTITLE10=Bodhisattva
TTITLE11=Razor Boy
TTITLE12=The Boston Rag
TTITLE13=Your Gold Teeth
TTITLE14=Show Biz Kids
TTITLE15=My Old School
EXTD=MCAD4-10981
EXTT0=MCAD4-10981
EXTT1=MCAD4-10981
EXTT2=MCAD4-10981
EXTT3=MCAD4-10981
EXTT4=MCAD4-10981
EXTT5=MCAD4-10981
EXTT6=MCAD4-10981
EXTT7=MCAD4-10981
EXTT8=MCAD4-10981
EXTT9=MCAD4-10981
EXTT10=MCAD4-10981
EXTT11=MCAD4-10981
EXTT12=MCAD4-10981
EXTT13=MCAD4-10981
EXTT14=MCAD4-10981
EXTT15=MCAD4-10981
PLAYORDER=
